<svg xmlns="http://www.w3.org/2000/svg" xml:space="preserve" width="1000.001" height="787.48901" viewBox="0 0 1000.001 787.489">
  <g fill="#000">
    <path d="m24.874 562.117 13.808-20.846 23.943 6.55-15.622-19.031 13.409-20.579-23.19 9.071-16.11-18.986 1.372 24.651L0 531.445l23.458 6.151Zm-3.276-91.837 17.482-18.011 22.35 10.975-11.728-21.554 17.039-17.703-24.431 4.514-12.17-21.774-3.231 24.475-23.898 4.115 21.863 10.533Zm14.428-90.948 20.536-14.163 19.916 14.871-7.524-23.456 20.314-14.03-24.962-.31-7.744-23.634-7.967 23.545-24.21-.575 19.475 14.384zm103.032-170.17 12.835 21.288 1.771-24.341 24.031-5.71-22.881-9.515 1.638-24.74-16.064 18.765-22.307-9.647 12.613 20.712-16.021 18.633zM435.673 63.553l18.41-16.286 21.111 12.701-9.958-22.925 18.412-16.641-24.564 2.257L449.791.353l-5.444 23.59-24.43 2.434 21.332 12.834zM83.604 735.517l4.956-24.518 24.651-2.966-21.553-11.772 4.647-24.032-18.103 16.993-21.995-11.506 10.622 22.309-17.748 16.417 23.988-3.099zm117.105-589.688 8.586 23.368 6.462-23.723 24.607-.841-20.713-13.72 6.417-24.121-19.34 15.27-20.094-13.499 8.321 22.749-19.164 15.181zm72.76-50.719 3.851 24.563 11.021-22.04 24.297 3.895-17.792-17.482 10.888-22.395-22.085 11.331-16.995-17.083 3.983 23.811-21.818 11.418zm80.15-11.065 14.871-19.562 23.234 8.409-14.118-20.536 14.915-19.827-23.766 6.771-13.41-19.96-.709 24.209-23.634 6.859 23.457 8.719zM39.788 628.061l6.02 23.809 9.56-23.233 24.917 1.815-19.03-15.626 9.205-22.747-20.978 13.276-19.43-15.578 6.107 23.987-20.579 12.659zm27.794-334.81 22.882-10.135 16.596 18.544-2.832-24.43 22.438-9.958-24.297-4.958-3.098-24.739-12.349 21.465-23.589-5.134 16.287 17.969zm712.813-150.52 6.374 23.721 8.894-23.19 24.784.665-19.25-15.446 8.762-22.527-20.312 13.322-19.12-15.402 6.282 24.164-20.935 13.588zm38.812 54.171 23.945 5.621 1.637 24.563 13.013-21.199 24.298 5.532-15.978-18.854 12.879-20.447-22.395 9.161-15.979-18.676 1.638 24.917zm-111.66-101.35 10.755 21.997 4.162-24.386 24.56-3.939-21.819-11.552 4.206-23.766L712.106 70.9l-21.819-11.418 10.755 22.527-17.749 17.305zm185.795 177.827-2.966 24.297 16.906-18.278 22.703 10.046-12.17-21.553 16.596-17.57-23.766 4.824-12.125-21.598-3.1 24.784-24.343 4.736zM603.718 71.431l23.278-8.275 14.741 19.783-.664-25.004 23.456-8.454-23.679-7.17-.441-24.208-13.764 19.959-23.503-7.125 14.914 20.137zM977.52 518.433l1.724-24.606-16.328 19.164-23.059-9.427 13.231 20.623-15.8 18.942 24.076-6.196 13.587 20.846 1.593-24.651 23.457-5.796zm-16.509 105.155 24.209-1.151-20.314-13.143 6.151-23.721-19.562 15.62-20.846-13.63 9.118 22.97-19.253 15.403 24.918-1.462 9.382 23.014zm-47.888 83.339 4.692 24.518 10.799-22.261 23.943 3.452-17.571-16.687 10.755-22.128-22.217 11.551-18.013-17.347 4.559 24.032-21.599 11.594zM304.848 552.202c-1.903-1.549-25.271 22.219-40.541 38.812-5.398 5.755-8.896 11.2-10.975 13.766 0 0-6.728 11.108-10.313 15.801-3.629 4.692-12.613 17.924-16.596 23.679-1.373 1.901-4.913 10.266-11.861 18.941-3.452 4.336-6.948 10.002-13.72 18.678-9.028 11.594-15.845 21.109-14.295 22.394.885.617 14.162-15.447 28.412-32.707 5.931-7.214 12.349-14.605 17.793-21.644 2.654-3.405 8.763-9.115 10.755-12.037 3.495-5.179 7.303-9.117 8.807-10.357 7.922-6.46 12.392-6.946 14.959-10.619 1.195-1.814 16.905-25.449 22.615-35.053 5.221-9.073 18.1-26.822 14.96-29.654m664.438-149.768-12.304 21.731-24.387-4.78 16.951 17.924-11.814 21.376 22.395-10.622 17.257 17.835-3.052-24.607 21.952-10.091-23.901-4.427zm-59.969-64.306 20.048 14.206-7.611 23.456 19.918-14.826 20.579 14.295-7.879-23.545 19.606-14.162-24.12.221-7.837-23.369-7.83 23.679zM520.073 59.394l21.243-12.525L559.55 63.2l-5.354-24.254 21.196-12.701-24.56-2.567L545.873 0l-9.735 22.173-24.429-2.346 18.497 16.73zm3.186 431.465c2.302 6.774 10.845 46.693 13.321 54.969 2.565 8.233 5.134 8.676 6.552 11.905 4.954 12.438 12.079 12.924 15.754 13.941 10.269 3.144 11.107 16.906 17.657 29.21 6.109 11.509 11.864 21.863 17.263 34.431 5.398 12.57 33.016 80.64 37.752 90.995 1.591 3.761 14.736 3.761 13.318 0-3.316-7.48-10.886-26.286-15.578-45.053-2.963-12.17 8.412-3.542 1.151-23.059-3.364-8.94-9.735-17.835-13.318-21.466-3.675-3.583-7.217-19.03-10.005-25.936-2.963-6.728-1.462-7.08-7.566-23.323-4.562-11.861 8.231-7.878 1.062-26.157-4.647-11.903-28.281-54.921-31.025-59.347-1.328-2.436-5.885-9.871-11.508-18.678-5.31-8.364-9.69-17.304-12.215-21.2-4.912-7.876-13.94-25.138-19.03-32.307-5.043-7.215-11.331-23.059-13.941-20.402-2.565 2.345 7.611 26.111 11.772 41.247 4.382 15.093 1.195 21.245-1.415 25.536-2.436 4.251-2.436 7.084-.001 14.694m160.343 123.213c6.952 11.553 8.81 9.251 11.687 9.385 6.549.178 21.199 15.934 24.12 20.226 2.788 4.337 26.375 27.838 32.44 33.592 2.655 2.521 21.333 32.704 23.721 30.539 2.524-2.171-7.167-16.818-8.629-20.096-1.326-3.186-6.727-7.922-9.34-14.78-2.433-6.728-13.541-23.679-17.168-29.032-3.589-5.401-9.43-17.352-15.804-24.918-5.885-6.641-1.192-8.454-7.255-14.294-3.675-3.453-15.092-13.591-17.66-15.714-2.433-2.213-11.772-10.488-17.127-15.134-5.313-4.515-18.058-13.368-17.615-19.031.175-5.801-2.613-16.817-6.905-20.492-3.1-2.655-12.215-17.349-22.658-25.847-5.268-4.426-16.51-16.109-25.183-26.244-8.101-9.649-14.207-18.457-16.067-17.217-2.743 1.771 9.43 18.765 10.666 20.803 1.284 1.945 15.358 26.286 16.685 32.66 1.463 6.463 27.707 50.631 33.327 64.35 3.229 8.011 21.198 18.721 28.765 31.244m114.628 42.712c.884-1.063-1.638-4.339-3.008-6.816-1.507-2.479-10.446-12.393-12.129-15.181-1.459-2.61-13.054-19.119-17.129-24.518-7.255-9.296-.617-12.704-4.425-18.455-1.549-2.524-10.842-13.722-21.642-24.785-5.576-5.534-11.772-10.889-17.037-15.625-8.543-7.611-15.003-13.276-16.064-12.346-1.507 1.504 3.538 7.567 5.707 10.355 2.168 2.654 5.576 7.566 10.091 12.923 7.302 8.721.53 15.312 7.521 22.261 1.151 1.151 20.448 22.747 25.186 26.733 7.035 6.283 32.174 36.113 33.944 37.75 2.967 2.789 8.143 8.766 8.985 7.704M400.354 515.202c1.417-3.01 5.798-12.303 5.577-16.02 0-.664-1.638-1.815-3.01-.445-6.462 6.375-19.605 29.122-24.606 31.69-11.242 5.442-16.155 18.633-19.519 23.854-2.39 3.851-5.487 10.091-10.843 17.927-4.691 6.77-10.046 16.904-12.038 20.401-1.947 3.672-2.656 7.036.973 7.036s.798 5.932-3.629 12.437c-2.522 3.806-8.762 22.041-10.577 26.997-2.39 6.107-2.036 13.896-2.877 16.507-.841 2.436-12.745 27.796-15.844 33.416-1.947 3.542-1.372 4.957-2.125 6.905-1.106 2.433.267 3.142 2.125 1.371 2.258-2.258 15.003-21.6 18.897-23.898 3.807-2.391 7.303-5.93 7.878-14.252.575-8.32 5.976-10.577 10.003-15.445 4.205-4.825 9.736-11.286 12.701-18.058 2.788-6.991 6.374-1.682 12.836-12.081 6.46-10.488 20.978-36.335 24.297-41.336 3.186-5.004.841-12.217.442-18.191-.177-3.141.265-10.888 2.125-19.119 1.86-7.347 5.267-14.828 7.214-19.696m55.589-197.476c5.354 0 13.188-9.782 17.436-18.278 4.383-9.206 6.596-14.384 12.083-26.157.221-.62-.31-.62-.886-.62-6.239 0-13.1 6.374-17.48 11.507-5.179 6.374-13.676 18.368-14.96 26.998-.929 4.646 1.106 6.55 3.807 6.55m138.26 8.275c6.109 3.098 13.677-10.356 20.271-22.615 6.549-12.348 11.772-27.662 6.24-29.565-6.24-2.522-14.163 9.516-20.757 21.819-6.508 12.304-11.461 27.618-5.754 30.361M358 317.726c5.487 0 13.145-9.782 17.57-18.278 4.338-9.206 6.64-14.384 11.95-26.157.266-.62-.266-.62-.753-.62-6.284 0-13.145 6.374-17.481 11.507-5.179 6.374-13.764 18.368-15.048 26.998-.928 4.646 1.284 6.55 3.762 6.55m-60.013-111.221c42.487 1.992 67.492 22.837 67.492 45.188-.043 39.965-63.42 46.78-63.42 46.78-11.021 55.367-54.924 76.477-85.329 76.168-40.806-.31-40.187-33.37-38.813-37.619 1.725-4.914 4.247-9.383 9.382-9.383 5.09 0 9.339 4.16 9.339 9.383 0 3.143-1.55 6.107-4.249 7.656-5.355 3.32-4.338 7.48-4.338 7.48 0 17.57 22.704 18.941 28.68 18.941 60.765 0 53.772-100.111 107.368-134.144 2.435-1.637 4.338 0 2.833 1.682-16.729 20.978-23.014 54.791-23.014 54.791 25.847 0 42.93-24.607 42.93-41.735 0-29.342-26.422-41.514-48.86-41.514-62.581 0-89.755 43.727-89.755 67.537 0 23.855 15.048 32.485 25.936 32.485 15.181 0 19.916-10.134 18.057-15.091-3.01-7.789 1.15-14.295 5.843-14.295 1.858 0 8.099-.31 8.099 10.667 0 10.577-15.004 21.243-31.601 21.243-16.375 0-40.318-8.851-40.318-35.008-.002-53.021 65.234-73.159 103.738-71.212m105.377 64.794c-6.771 15.314-11.772 26.289-18.014 40.762-.53 1.372-1.017 3.761.268 4.646 1.149.531 2.478.531 3.229 0 8.011-3.85 15.048-13.189 20.581-23.811l9.868-21.774h13.897l-3.807 8.231c-.311.443-.311.708 0 .443 4.338-3.275 8.896-8.188 14.473-11.242 2.168-1.018 7.347-1.018 6.814 2.567-.265 3.186-2.699 5.621-4.07 8.675-.797 1.947-1.638 4.381-1.372 5.709.575 1.459 2.168 2.256 4.337.619 2.169-1.372 3.851-2.479 5.843-4.116 3.451-3.364 7.833-6.506 12.745-9.116 9.87-4.559 23.28-7.525 33.105-1.284-6.861 15.357-12.038 26.776-18.589 41.248-1.195 2.478-.221 3.275.575 3.85.841.531 2.434.796 4.647-.397 5.398-2.257 14.959-12.923 18.765-21.2 3.63-7.7 6.905-15.313 10.755-23.987h14.297l-3.986 8.409.575.266c3.809-3.497 13.766-11.463 21.112-9.781 4.073.841 6.063 5.708 5.755 9.338 4.645-3.407 9.426-7.479 16.331-9.161 9.868-2.434 13.719 4.425 10.666 11.021-3.85 9.029-11.464 26.731-15.845 35.849-.531.93-.531 2.965 0 3.408 1.106.885 3.055 0 3.895-.443 4.912-4.205 7.614-6.904 11.417-12.304 1.062-9.56 6.24-18.366 13.412-25.713 7.611-8.453 19.648-15.047 31.201-11.153 4.027 1.328 6.771 5.443 7.878 9.516.531 2.168 1.062 3.274 1.062 5.753 6.063 4.427 13.985-2.788 17.218-8.187.885-2.214 1.991-4.648 2.521-6.33 3.453.265 10.222 0 14.25 0l-17.836 40.762c-1.147 2.389-1.415 3.761-1.415 5.621 0 1.504 1.638 1.77 3.364 1.504 4.912-.885 12.921-10.533 16.948-18.632 4.515-10.135 8.987-18.588 13.413-28.679h14.427c-5.754 13.631-12.262 28.148-16.951 38.77-1.106 2.168-2.388 4.381-1.682 7.39.575 1.417 2.479 1.151 3.672.62 6.241-3.629 16.996-15.578 20.715-22.97 3.893-8.763 6.77-15.313 10.842-23.811h14.827l-3.541 8.498c5.531-4.382 11.461-9.073 18.589-10.224 3.274-.442 7.347-.266 9.251 3.098 2.213 3.807.884 7.833-.754 11.507-4.072 9.294-8.809 19.385-12.879 28.37-.753 2.212-.973 4.293.487 5.177 2.257 1.417 12.611-4.912 17.879-16.419 4.56-10.091 7.659-16.066 11.729-25.891h-7.611l2.124-4.426h7.655l10.931-23.766H798.1l-10.624 23.766h11.11l-2.082 4.426h-10.933c-6.282 13.322-11.551 24.563-17.038 37.133-2.123 4.293-4.336 11.507-3.186 15.888.843 2.435 3.851 3.054 6.594 2.125 8.409-2.921 14.163-10.09 19.075-17.748.267-.841 4.734-.265 4.381.354-5.799 11.418-18.321 22.97-30.316 22.66-3.583 0-7.48-2.213-9.604-5.267-1.015-1.594-1.679-2.921-2.213-4.824-.753-3.098-.528-6.595 0-9.914-6.505 4.958-12.745 10.932-20.977 12.613-3.586.531-8.187-.796-9.028-4.646-.531-3.009-.267-6.33.842-9.029 5.177-11.197 9.779-21.288 14.691-33.105.4-.531 0-2.478-.575-2.743-.798-.752-3.23-.752-5.398.885-10.091 7.612-15.27 17.481-19.606 27.571-3.099 6.772-6.415 13.632-9.648 20.271h-14.516c1.682-4.071 4.116-9.56 6.018-13.985 0-.265-.264-.265-.264 0-5.974 5.931-13.677 12.746-21.243 14.782-3.056.796-6.11-.221-7.658-3.098-1.727-2.699-2.213-6.727-.754-10.4 0-.177-.131-.177-.439 0-5.401 5.533-10.666 10.4-17.927 12.923-8.275 2.522-15.709-3.275-10.488-15.313 1.418-3.232 5.532-12.304 10.047-23.191-3.762 1.548-8.365 1.548-10.842.796-.312 0-.312 0-.312.266-3.188 15.268-12.259 29.166-26.199 35.804-6.816 3.319-14.562 4.16-21.333-.487-3.274-2.168-5.223-7.479-5.487-12.083-7.038 7.126-15.05 16.109-25.936 14.561-1.638-.354-3.008-1.815-3.85-3.319-2.479-4.115-1.021-8.542.53-12.083 5.224-10.887 9.516-21.067 14.739-33.326.839-1.727-1.507-2.966-3.188-2.168-5.177 2.479-8.365 4.957-11.239 9.382-1.551 2.39-3.1 5.134-4.339 7.744-4.826 10.49-9.869 21.377-14.252 31.954h-14.825c6.639-14.914 12.879-29.431 19.428-44.168.62-1.372.268-3.319-.53-3.762-1.284-.708-3.628.443-5.135 1.329-3.541 2.434-6.683 5.665-9.028 9.87-2.478 4.071-4.734 8.142-6.461 12.569l-11.063 24.164h-14.474c1.417-3.186 4.116-9.559 5.753-12.746 0-.265-.265-.486-.265-.265-7.922 6.55-18.057 15.047-25.448 13.631-2.479-.266-4.603-2.434-5.178-4.646-.53-2.788-.31-5.267.266-7.613 0-.31-.266-.31-.575 0-6.33 6.02-11.994 10.976-19.961 12.879-4.559 1.018-8.851-1.903-10.312-5.266-2.036-3.763-2.522-9.825.752-16.686 1.947-4.381 4.072-8.984 6.771-12.79-1.593.841-4.824 1.106-7.037.841-1.858-.265-3.85-1.726-4.824-3.142-1.15-1.239-1.416-3.718-1.416-5.355.266-.31-.575-.31-1.151 0-4.336 3.497-6.283 7.657-8.452 12.26l-12.57 28.457h-14.781l5.444-12.083c.266-.221 0-.486-.266-.221-7.701 6.816-16.906 14.561-24.342 13.1-2.125-.354-4.382-2.478-4.913-4.602-.53-2.567-.31-5.311 0-7.702h-.53c-6.021 6.02-11.773 10.887-19.606 12.569-4.47 1.416-8.498-1.283-10.225-5.09-2.168-5.577-1.371-11.24.576-16.508 5.665-14.826 16.154-25.403 30.316-33.413 8.983-5.136 22.968-6.686 32.793-1.596M85.595 500.286c0 62.537 16.597 132.995 46.205 190.795 53.507-49.922 193.893-208.363 210.003-226.774 24.475-28.015 35.052-10.18 48.196-25.847 7.037-8.586 11.152-11.861 14.25-13.587 5.046-3.009 10.8-10.178 13.676-12.304 2.877-2.168 9.383-10.798 14.429-15.136 5.09-4.292 15.047-10.798 25.183-19.385 10.091-8.674 27.263-28.767 45.983-28.767 22.261 0 31.557 15.092 33.547 16.907 1.593 1.727 15.314 13.852 17.526 16.154 2.433 2.744 17.127 14.339 25.094 14.339 7.878 0 13.722 8.63 17.969 12.924 9.427 8.585 48.372 49.523 61.164 58.198 5.71 3.938 11.108 3.231 15.356 6.551 4.384 3.229 6.552 5.312 9.028 6.063 2.391.664 10.755-1.462 20.493 10.711 4.515 3.097 5.71 3.63 5.71 3.63s13.231 11.992 17.969 20.445c4.292 7.303 102.941 138.35 138.259 185.22 32.75-59.394 51.472-127.639 51.472-200.222 0-229.742-186.236-415.757-415.844-415.757-229.61.132-415.668 186.235-415.668 415.842M841.471 755.918v4.65h8.984v24.607h5.709v-24.607h8.94v-4.65zm53.906 0-7.923 20.757-8.143-20.757h-8.188v29.258h5.312v-22.884h.131l8.852 22.884h3.938l8.676-22.884h.223v22.884h5.268v-29.258z"/>
  </g>
</svg>
