<svg xmlns="http://www.w3.org/2000/svg" xml:space="preserve" style="enable-background:new 0 0 1022.9 591" viewBox="0 0 1022.9 591">
  <switch>
    <g>
      <path d="M109.5 330h-2.2c-6.6-46.6-13.3-93.2-19.9-139.6H61.1c10.8 69.2 21.6 138 32.4 206.8h27c11.8-69.3 23.5-137.9 35.3-206.8h-28.4c-6 46.8-12 93.2-17.9 139.6zm250.4-139.6h-68.2v24h19.8v183.7H337V213.8h22.9v-23.4zm26.5 1c-11.1 69.3-22 138.2-33.1 207.2h27.2c2.6-19.1 5.1-37.8 7.7-56.5h27.6c2.4 19 4.8 37.5 7.1 55.9h27.8c-10.5-69.4-20.8-138.1-31.2-206.6h-33.1zm5.7 124.8c3.4-22.8 6.7-44.9 9.9-67h2.1c2.7 22.2 5.5 44.3 8.3 67h-20.3zM281.2 205.7c-6.3-13-17.6-18.5-34.6-17.1-13.6 1.1-30.1 11.7-30.9 27.7-.9 17.4-.6 34.9 0 52.3.6 17.1 9.5 29 25.5 35.5 3.1 1.2 6.1 2.7 9.1 4.2 5.5 2.7 8.1 6.8 7.9 13.2-.4 9.3-.1 18.7-.3 28-.1 6.7-.3 13.3-1 19.9-.6 5.5-4 8.4-8.7 8.6-5 .2-8.2-2.1-9.6-7.6-.9-3.8-1.5-7.8-1.6-11.8-.3-7.1-.1-14.2-.1-22.1h-23.7c0 11.4-.6 22.8.1 34 1.3 19 9.7 27.8 28.4 31.1 15 2.7 28.9-2.6 35-15 3.1-6.2 4.6-13.6 5-20.6 1-17.4.5-35 1.3-52.4.5-11.9-5.7-19-15.4-23.9-4-2-8.2-3.6-12.2-5.6-10.3-5.2-18.4-12-18-25.1.3-8.5-.1-17 .2-25.4.2-4.4.8-9 2-13.2 1.5-5.5 5.4-7.4 11.2-6.6 4.9.7 7.8 3.9 8 9.2.2 6.3.1 12.7.2 19 0 1.4.3 2.8.5 3.9h24.1c0-11.5.1-22.1-.1-32.7-.1-2.5-1.2-5.1-2.3-7.5zM168.5 397.9h24.8V190.3h-24.8v207.6zm539.9-191.5c-6.6-13-18.4-18.5-36.1-17.1-14.2 1.1-31.4 11.7-32.3 27.7-1 17.4-.6 34.9 0 52.3.6 17.1 9.9 29 26.6 35.5 3.2 1.2 6.3 2.7 9.5 4.2 5.7 2.7 8.5 6.8 8.2 13.2-.4 9.3-.1 18.7-.3 28-.1 6.7-.3 13.3-1.1 19.9-.6 5.5-4.2 8.4-9.1 8.6-5.2.2-8.6-2.1-10-7.6-1-3.8-1.6-7.8-1.7-11.8-.3-7.1-.1-14.2-.1-22.1h-24.7c0 11.4-.7 22.8.1 34 1.4 19 10.1 27.8 29.6 31.1 15.6 2.7 30.2-2.6 36.6-15 3.2-6.2 4.8-13.6 5.2-20.6 1-17.4.6-35 1.3-52.4.5-11.9-5.9-19-16.1-23.9-4.2-2-8.6-3.6-12.8-5.6-10.8-5.2-19.2-12-18.7-25.1.3-8.5-.1-17 .2-25.4.2-4.4.8-9 2-13.2 1.6-5.5 5.6-7.4 11.7-6.6 5.1.7 8.2 3.9 8.4 9.2.2 6.3.1 12.7.2 19 0 1.4.3 2.8.5 3.9h25.1c0-11.5.2-22.1-.1-32.7.2-2.4-.9-5.1-2.1-7.5zm26.5 193h24.6V192.5h-24.6v206.9zm198.9-206.7v106.7c-.6.1-1.1.2-1.7.3-8.1-35.8-16.1-71.6-24.1-107h-27.4v207h25.6v-98.5c.6-.1 1.2-.1 1.8-.2 8 33.2 15.9 66.4 23.8 98.9h26.3V192.7h-24.3zM590.8 399h25.5V191.2h-25.5V399zm230-208.3c-10.2 0-19.2 3.8-26.5 11.4-7.3 7.6-10.8 16.8-10.8 27.5v135.1c0 10.8 3.5 19.9 10.8 27.5 7.3 7.3 16.3 11.1 26.5 11.1s18.9-3.8 26.2-11.1c7.3-7.6 10.8-16.8 10.8-27.5V229.6c0-10.8-3.5-19.9-10.8-27.5-7.3-7.6-16.1-11.4-26.2-11.4zm9.9 174c.6 15.5-20.4 15.5-20.1 0V229.6c-.3-15.5 20.6-15.5 20.1 0v135.1zM561 56.1c-16.7 107.8-33.2 215.1-49.8 322.4l-2.1.3c-18.2-107.5-36.5-215.1-54.8-323h-32.9c29.4 158.4 58.9 316.9 88.3 475.5h1.5c27.2-158.4 54.3-316.8 81.4-475.1H561z"/>
    </g>
  </switch>
</svg>
